<svg xmlns="http://www.w3.org/2000/svg" viewBox="0 0 475.11 234.17">
<path fill="#edb37e" d="M233.32 15.16c-30.56 0-57.24 15.17-71.45 37.69-6.93 10.99-10.9 23.72-10.9 37.31 0 3.01.2 5.98.57 8.89 2.89-1.65 6.2-3.53 9.79-5.57a75 75 0 0 1-.08-3.36c0-13.62 3.7-26.36 10.14-37.27 12.58-21.28 35.59-35.53 61.91-35.53 26.31 0 49.33 14.25 61.9 35.53 6.44 10.9 10.14 23.65 10.14 37.27 0 1.2-.03 2.4-.09 3.59 3.59 2.03 6.89 3.89 9.78 5.51.39-2.97.6-5.99.6-9.06 0-13.58-3.97-26.32-10.9-37.31-14.21-22.52-40.88-37.68-71.44-37.69zM371.62 52.85c-6.88 12.06-11.03 25.59-11.73 39.93-.02.43-.05 1.77-.05 2.18v10.74h14.71c-.01-.06-.03-.14-.03-.18-.81-4.64-1.22-9.41-1.22-14.27 0-13.76 3.36-26.79 9.35-38.4 15.25-29.57 47.56-49.97 84.96-50.01V0c-41.85.03-78.12 21.49-95.99 52.85"/>
<path fill="#edb37e" d="M233.32 0c-41.89 0-78.21 21.47-96.09 52.85-6.56 11.5-10.63 24.33-11.61 37.92-.03.45-.12 2.29-.12 2.81v12.12h14.66c0-.06-.03-.14-.03-.18-.81-4.64-1.22-9.41-1.22-14.27 0-13.76 3.36-26.79 9.35-38.4 15.26-29.6 47.62-50.01 85.06-50.01s69.79 20.42 85.05 50.01c5.99 11.61 9.35 24.64 9.35 38.4 0 4.86-.42 9.62-1.22 14.26 0 .02-.03.17-.03.19h14.77v-8.61c0-15.93-4.27-30.97-11.83-44.24C311.53 21.47 275.21 0 233.32 0M107.54 93.7c0-.62-.07-2.48-.11-3.06-.99-13.55-5.06-26.33-11.6-37.8C77.99 21.53 41.78.09 0 0v2.84c37.34.09 69.57 20.48 84.8 50.01 5.99 11.61 9.35 24.64 9.35 38.4 0 4.86-.42 9.62-1.22 14.26 0 .02-.03.17-.03.19h14.63c.02-1.9.01-8.89.01-11.99ZM460.89 195.25s-.09.66-.11.75c-.36 1.81-.79 3.59-1.29 5.3-1.32 4.56-3.14 8.79-5.39 12.58-3.18 5.3-7.03 9.54-11.45 12.6-4.47 3.07-9.39 4.75-14.59 4.97h-1.79c-5.25-.23-10.14-1.9-14.54-4.97-4.48-3.08-8.32-7.29-11.42-12.52-3.1-5.17-5.35-11.13-6.69-17.71 5.72-3.05 74-38.44 74-38.44l-.03-.08-.55-1.51c-.27-.73-.74-1.73-1.43-3.06-.68-1.25-1.65-2.69-2.88-4.28-.44-.57-2.49-2.85-2.85-3.2l-.62-.58c-1.68-1.59-3.82-3.2-6.36-4.8-7.88-4.97-16.53-7.48-25.71-7.48-6.53 0-12.87 1.28-18.82 3.8-5.94 2.55-11.3 6.26-15.95 11.05-4.68 4.82-8.29 10.36-10.73 16.46-2.47 6.13-3.72 12.64-3.72 19.35s1.25 13.28 3.72 19.38c2.42 6.07 6.03 11.59 10.73 16.43 4.65 4.79 10.01 8.5 15.95 11.05 5.93 2.54 12.26 3.83 18.82 3.83s12.83-1.29 18.79-3.83c6-2.57 11.37-6.28 15.98-11.02 6.14-6.41 10.39-13.9 12.64-22.26.09-.35.51-1.79.51-1.79h-14.22zm-68.49-9.95-.06-1.85c0-6.19.82-12.16 2.44-17.75 1.63-5.54 3.92-10.52 6.79-14.79 2.86-4.27 6.24-7.78 10.05-10.44 3.82-2.66 8-4.29 12.41-4.83.9-.08 1.94-.12 3.16-.12s2.17.04 3.06.11c7.49 1.03 14.06 4.84 19.53 11.31 2.56 3.09 5.97 7.98 7.93 12.07-.96.49-58.46 30.98-64.65 34.2-.38-2.61-.6-5.27-.65-7.92h-.01ZM367.03 155.82c-2.11-7.34-6.01-12.96-11.59-16.71-.13-.09-.63-.41-.63-.41-1.64-1.06-6.29-3.63-12.3-4.52-6.85-1.08-13.06-.04-18.52 3.12-7.31 4.2-13.41 12.23-18.14 23.87v-27.52h-14.21v99.84h14.21v-50.54c0-11.19.42-15.06 4.28-24.5 4.12-8.83 9.29-15.19 15.36-18.87 3.62-2.05 7.58-3.1 11.76-3.13 3.17.15 5.9.93 8.19 2.32 2.61 1.69 4.41 3.8 5.29 5.09 1.57 2.29 3.47 6.64 3.67 15.13.03 1.12.05 33.84.07 46.11v28.39h14.21v-65.45c0-4.05-.55-8.16-1.64-12.23h-.01ZM149.32 172.26l35.75-38.56h-3.72l-69.1 74.57V133.7H97.92v99.8h14.33v-21.25l27.08-29.22 29.2 50.17.18.3h16.12zM65.59 180.47c-9.34-2.31-13.97-1.64-24.64-3.71-11.4-1.94-15.62-9.06-16.92-14.64-3.29-16.37 10.7-26.85 24.1-26.6 7.38.33 14.47 3.25 19.36 8.57 2.97 3.38 4.93 7.77 5.12 13.21l12.35-5.89c-2.25-5.96-11.48-17.75-36.3-18.58-.22 0-1.24-.02-1.53 0-23.64.31-38.26 12.35-38.16 23.88.35 14.1 19.12 20.43 25.32 21.85 12.74 3.04 17.54 2.76 24.51 5.74 11.72 4.98 14.57 15.12 13.62 23.85-.59 5.44-4.29 20.15-21.82 23.11-2.32.33-3.98.31-6.56.05-5.37-.57-9.88-2.81-12.7-4.8-4.57-3.06-8.55-7.3-11.83-12.58-2.25-3.65-4.83-9.35-5.92-14.03H0c1.87 6.35 6.3 14.34 11.37 19.45a50.75 50.75 0 0 0 16.52 11c5.29 2.18 10.86 3.42 16.59 3.73 1.96.11 6.44 0 7.38-.14 19.03-1.18 34.24-12.38 34.24-28.72 0-8.12-3.11-20.66-20.52-24.72v-.02ZM268.04 195.25s-.09.66-.11.75c-.36 1.81-.79 3.59-1.29 5.3-1.32 4.56-3.14 8.79-5.39 12.58-3.18 5.3-7.03 9.54-11.45 12.6-4.47 3.07-9.39 4.75-14.59 4.97h-1.79c-5.25-.23-10.14-1.9-14.54-4.97-4.48-3.08-8.32-7.29-11.42-12.52-3.1-5.17-5.35-11.13-6.69-17.71 5.72-3.05 74-38.44 74-38.44l-.03-.08-.55-1.51c-.27-.73-.74-1.73-1.43-3.06-.68-1.25-1.65-2.69-2.88-4.28-.44-.57-2.49-2.85-2.85-3.2l-.62-.58c-1.68-1.59-3.82-3.2-6.36-4.8-7.88-4.97-16.53-7.48-25.71-7.48-6.53 0-12.86 1.28-18.82 3.8-5.94 2.55-11.3 6.26-15.95 11.05-4.68 4.82-8.29 10.36-10.73 16.46-2.47 6.13-3.72 12.64-3.72 19.35s1.25 13.28 3.72 19.38c2.42 6.07 6.03 11.59 10.73 16.43 4.65 4.79 10.01 8.5 15.95 11.05 5.93 2.54 12.26 3.83 18.82 3.83s12.83-1.29 18.79-3.83c6-2.57 11.37-6.28 15.98-11.02 6.14-6.41 10.39-13.9 12.64-22.26.09-.35.51-1.79.51-1.79h-14.22zm-3.18-36.23c-.96.49-58.46 30.98-64.65 34.2-.38-2.61-.6-5.27-.65-7.92l-.06-1.85c0-6.19.82-12.16 2.44-17.75 1.63-5.54 3.92-10.52 6.79-14.79 2.86-4.27 6.24-7.78 10.05-10.44 3.82-2.66 8-4.29 12.41-4.83.9-.08 1.94-.12 3.16-.12s2.17.04 3.06.11c7.49 1.03 14.06 4.84 19.53 11.31 2.56 3.09 5.97 7.98 7.93 12.07h-.01Z"/>
</svg>